<svg width="83" height="40" viewBox="0 0 83 40" fill="none" xmlns="http://www.w3.org/2000/svg">
<g filter="url(#filter0_d_64_681)">
<path d="M26.84 28.752C27.2 29.472 27.392 30.084 27.416 30.588C27.44 31.092 27.284 31.536 26.948 31.92C26.612 32.304 26.072 32.688 25.328 33.072C24.176 33.624 23.288 33.792 22.664 33.576C22.04 33.384 21.452 32.7 20.9 31.524L14.78 18.996L8.732 31.56C8.156 32.688 7.556 33.348 6.932 33.54C6.308 33.756 5.432 33.588 4.304 33.036C3.56 32.676 3.008 32.304 2.648 31.92C2.312 31.536 2.156 31.092 2.18 30.588C2.204 30.084 2.396 29.472 2.756 28.752L11.792 10.032C12.08 9.456 12.5 9 13.052 8.664C13.628 8.304 14.216 8.124 14.816 8.124C15.248 8.124 15.644 8.208 16.004 8.376C16.388 8.52 16.736 8.736 17.048 9.024C17.36 9.312 17.612 9.66 17.804 10.068L26.84 28.752ZM9.092 28.104L11.828 22.488H17.768L20.504 28.104H9.092ZM50.6698 32.424C50.0218 33 49.4458 33.372 48.9418 33.54C48.4618 33.732 47.9938 33.708 47.5378 33.468C47.0818 33.252 46.5778 32.832 46.0258 32.208L29.1058 13.632C28.3138 12.792 27.9058 12.024 27.8818 11.328C27.8818 10.632 28.3498 9.852 29.2858 8.988C29.9338 8.388 30.4978 8.004 30.9778 7.836C31.4818 7.644 31.9618 7.668 32.4178 7.908C32.8978 8.124 33.4018 8.556 33.9298 9.204L50.8498 27.816C51.6658 28.704 52.0858 29.484 52.1098 30.156C52.1338 30.804 51.6538 31.56 50.6698 32.424ZM29.3218 32.424C28.3618 31.56 27.8818 30.804 27.8818 30.156C27.9058 29.484 28.3258 28.704 29.1418 27.816L46.0618 9.204C46.6138 8.556 47.1178 8.124 47.5738 7.908C48.0298 7.668 48.4978 7.644 48.9778 7.836C49.4818 8.004 50.0578 8.388 50.7058 8.988C51.6658 9.852 52.1338 10.632 52.1098 11.328C52.0858 12.024 51.6778 12.792 50.8858 13.632L33.9658 32.208C33.4378 32.832 32.9338 33.252 32.4538 33.468C31.9978 33.708 31.5178 33.732 31.0138 33.54C30.5338 33.372 29.9698 33 29.3218 32.424ZM56.6981 33.324C55.6181 33.324 54.8501 33.168 54.3941 32.856C53.9381 32.52 53.6621 32.1 53.5661 31.596C53.4701 31.068 53.4221 30.54 53.4221 30.012V11.4C53.4221 10.872 53.4701 10.356 53.5661 9.852C53.6621 9.348 53.9381 8.94 54.3941 8.628C54.8501 8.292 55.6301 8.124 56.7341 8.124C57.8381 8.124 58.6061 8.292 59.0381 8.628C59.4941 8.94 59.7701 9.348 59.8661 9.852C59.9621 10.356 60.0101 10.884 60.0101 11.436V30.048C60.0101 30.576 59.9621 31.092 59.8661 31.596C59.7701 32.1 59.4941 32.52 59.0381 32.856C58.5821 33.168 57.8021 33.324 56.6981 33.324ZM70.7833 33.684C69.3193 33.684 68.0713 33.504 67.0393 33.144C66.0313 32.784 65.2033 32.364 64.5553 31.884C63.9073 31.38 63.4153 30.924 63.0793 30.516C62.7433 30.108 62.5393 29.856 62.4673 29.76C61.9873 29.16 61.6873 28.62 61.5673 28.14C61.4713 27.66 61.5433 27.18 61.7833 26.7C62.0473 26.22 62.4793 25.692 63.0793 25.116C63.6313 24.588 64.1713 24.3 64.6993 24.252C65.2273 24.18 65.7433 24.288 66.2473 24.576C66.7753 24.864 67.2793 25.284 67.7593 25.836C68.3353 26.484 68.8273 26.928 69.2353 27.168C69.6433 27.384 70.1113 27.492 70.6393 27.492C71.2873 27.492 71.8153 27.42 72.2233 27.276C72.6313 27.108 72.9313 26.868 73.1233 26.556C73.3153 26.22 73.4113 25.8 73.4113 25.296C73.4113 24.888 73.2073 24.576 72.7993 24.36C72.3913 24.12 71.8513 23.916 71.1793 23.748C70.5313 23.58 69.7993 23.4 68.9833 23.208C68.1673 22.992 67.3633 22.716 66.5713 22.38C66.0913 22.188 65.6233 21.948 65.1673 21.66C64.7113 21.372 64.2793 21.048 63.8713 20.688C63.4873 20.304 63.1513 19.86 62.8633 19.356C62.5753 18.828 62.3473 18.24 62.1793 17.592C62.0353 16.944 61.9633 16.212 61.9633 15.396C61.9633 13.932 62.3233 12.624 63.0433 11.472C63.7873 10.32 64.7953 9.408 66.0673 8.736C67.3633 8.064 68.8273 7.728 70.4593 7.728C71.6353 7.728 72.6433 7.824 73.4833 8.016C74.3233 8.208 75.0073 8.436 75.5353 8.7C76.0873 8.964 76.5073 9.216 76.7953 9.456C77.0833 9.672 77.2633 9.816 77.3353 9.888C78.1273 10.608 78.5593 11.232 78.6313 11.76C78.7033 12.264 78.4153 12.996 77.7673 13.956C77.0473 14.988 76.3393 15.576 75.6433 15.72C74.9473 15.84 74.1433 15.612 73.2313 15.036C73.0393 14.892 72.8473 14.736 72.6553 14.568C72.4633 14.376 72.1993 14.22 71.8633 14.1C71.5513 13.956 71.0713 13.884 70.4233 13.884C70.1833 13.884 69.9433 13.932 69.7033 14.028C69.4633 14.1 69.2593 14.208 69.0913 14.352C68.9233 14.472 68.7793 14.628 68.6593 14.82C68.5633 15.012 68.5153 15.216 68.5153 15.432C68.5153 15.936 68.7073 16.332 69.0913 16.62C69.4753 16.884 69.9793 17.088 70.6033 17.232C71.2513 17.376 71.9593 17.52 72.7273 17.664C73.4953 17.808 74.2753 18 75.0673 18.24C75.7153 18.456 76.3393 18.732 76.9393 19.068C77.5393 19.404 78.0673 19.836 78.5233 20.364C78.9793 20.892 79.3393 21.552 79.6033 22.344C79.8913 23.112 80.0353 24.06 80.0353 25.188C80.0353 26.748 79.7353 28.08 79.1353 29.184C78.5353 30.264 77.7553 31.14 76.7953 31.812C75.8593 32.46 74.8513 32.928 73.7713 33.216C72.7153 33.528 71.7193 33.684 70.7833 33.684Z" fill="white"/>
</g>
<defs>
<filter id="filter0_d_64_681" x="0.144043" y="7.548" width="81.8914" height="30.352" filterUnits="userSpaceOnUse" color-interpolation-filters="sRGB">
<feFlood flood-opacity="0" result="BackgroundImageFix"/>
<feColorMatrix in="SourceAlpha" type="matrix" values="0 0 0 0 0 0 0 0 0 0 0 0 0 0 0 0 0 0 127 0" result="hardAlpha"/>
<feOffset dy="2"/>
<feGaussianBlur stdDeviation="1"/>
<feComposite in2="hardAlpha" operator="out"/>
<feColorMatrix type="matrix" values="0 0 0 0 0 0 0 0 0 0 0 0 0 0 0 0 0 0 0.1 0"/>
<feBlend mode="normal" in2="BackgroundImageFix" result="effect1_dropShadow_64_681"/>
<feBlend mode="normal" in="SourceGraphic" in2="effect1_dropShadow_64_681" result="shape"/>
</filter>
</defs>
</svg>
